<?xml version="1.0" encoding="UTF-8"?><svg id="Layer_2" xmlns="http://www.w3.org/2000/svg" viewBox="0 0 212.2 44.05"><defs><style>.cls-1{fill:#231f20;stroke:#231f20;stroke-miterlimit:10;}</style></defs><g id="Layer_1-2"><path class="cls-1" d="M.5,2.67L6.75.9v41.82H.5V2.67Z"/><path class="cls-1" d="M28.66,25.63c1.73-2.32,3.18-4.48,4.34-6.47,1.16-1.99,1.74-3.84,1.74-5.53,0-2.06-.54-3.64-1.63-4.73-1.09-1.09-2.72-1.63-4.9-1.63-1.99,0-3.6.55-4.81,1.66s-2.23,2.45-3.04,4.04l-5.14-2.77c1.29-2.47,2.99-4.55,5.09-6.25,2.1-1.7,4.79-2.54,8.08-2.54,4.09,0,7.23,1.06,9.4,3.18,2.18,2.12,3.26,4.9,3.26,8.33,0,4.46-2.21,9.4-6.64,14.83l-7.52,9.51h15.77v5.48H14.99l13.66-17.09Z"/><path class="cls-1" d="M54.85,41.92c-2.08-1.09-3.73-2.66-4.92-4.7-1.2-2.05-1.8-4.43-1.8-7.16,0-1.92.29-3.81.88-5.67.59-1.86,1.84-4.54,3.76-8.05,1.92-3.5,4.98-8.72,9.18-15.66l5.31,3.1c-3.61,5.46-6.47,10.03-8.57,13.72-.15.26-.3.52-.44.77-.15.26-.28.44-.39.55.59-.55,1.38-1,2.38-1.33,1-.33,2.14-.5,3.43-.5,2.43,0,4.59.58,6.47,1.74s3.33,2.71,4.34,4.65c1.01,1.94,1.52,4.03,1.52,6.28,0,2.88-.61,5.37-1.83,7.47-1.22,2.1-2.9,3.7-5.06,4.78-2.16,1.09-4.62,1.63-7.39,1.63-2.51,0-4.8-.54-6.89-1.63ZM67.63,35.92c1.35-1.47,2.02-3.37,2.02-5.7s-.69-4.36-2.07-5.78c-1.38-1.42-3.14-2.13-5.28-2.13-2.36,0-4.25.72-5.67,2.16-1.42,1.44-2.13,3.39-2.13,5.86,0,2.25.73,4.11,2.19,5.59,1.46,1.48,3.27,2.21,5.45,2.21,2.32,0,4.16-.74,5.5-2.21Z"/><path class="cls-1" d="M76.12,2.06h7.03l12.17,27.94,12.23-27.94h6.97l-18.75,40.66h-.83L76.12,2.06Z"/><path class="cls-1" d="M118.66,41.48c-2.03-1.2-3.52-2.8-4.48-4.81-.96-2.01-1.44-4.21-1.44-6.61,0-2.69.56-5.05,1.69-7.08,1.12-2.03,2.68-3.59,4.67-4.67,1.99-1.09,4.24-1.63,6.75-1.63,3.91,0,6.81,1.08,8.71,3.24,1.9,2.16,2.85,5.19,2.85,9.1,0,1-.05,2.03-.17,3.1h-18.25c.41,2.25,1.21,3.87,2.41,4.87,1.2,1,2.87,1.49,5.01,1.49,1.77,0,3.23-.15,4.37-.44,1.14-.29,2.19-.7,3.15-1.22l1.83,4.26c-.92.59-2.18,1.11-3.76,1.55-1.59.44-3.5.66-5.75.66-3.02,0-5.55-.6-7.58-1.8ZM131.6,27.95c.04-2.29-.46-3.9-1.49-4.84s-2.51-1.41-4.42-1.41c-3.87,0-6.1,2.08-6.69,6.25h12.61Z"/><path class="cls-1" d="M143.5,17.33h5.97v4.98c.59-1.7,1.55-3.06,2.88-4.09,1.33-1.03,2.84-1.55,4.54-1.55,1.18,0,1.99.11,2.43.33l-.83,6.03c-.33-.22-1.05-.33-2.16-.33-1.73,0-3.31.55-4.73,1.66-1.42,1.11-2.13,2.88-2.13,5.31v13.06h-5.97v-25.39Z"/><path class="cls-1" d="M166.76,42.58c-1.9-.46-3.26-1-4.07-1.63l1.99-4.7c2.21,1.55,4.74,2.32,7.58,2.32s4.26-.83,4.26-2.49c0-.74-.3-1.31-.89-1.71-.59-.41-1.64-.89-3.15-1.44l-2.1-.77c-2.21-.88-3.96-1.94-5.25-3.18-1.29-1.24-1.94-2.87-1.94-4.9,0-2.32.91-4.14,2.74-5.45,1.83-1.31,4.27-1.96,7.33-1.96,1.51,0,3,.17,4.45.5,1.46.33,2.57.76,3.35,1.27l-2.16,4.76c-.48-.48-1.24-.89-2.29-1.24-1.05-.35-2.22-.53-3.51-.53-2.62,0-3.93.79-3.93,2.38,0,.89.35,1.56,1.05,2.02.7.46,1.84.97,3.43,1.52.15.04.72.24,1.71.61,2.36.92,4.11,1.97,5.25,3.15,1.14,1.18,1.71,2.69,1.71,4.54,0,2.51-.95,4.41-2.85,5.7-1.9,1.29-4.31,1.94-7.22,1.94-1.77,0-3.61-.23-5.5-.69Z"/><path class="cls-1" d="M192.95,41.48c-2.03-1.2-3.52-2.8-4.48-4.81-.96-2.01-1.44-4.21-1.44-6.61,0-2.69.56-5.05,1.69-7.08,1.12-2.03,2.68-3.59,4.67-4.67,1.99-1.09,4.24-1.63,6.75-1.63,3.91,0,6.81,1.08,8.71,3.24,1.9,2.16,2.85,5.19,2.85,9.1,0,1-.05,2.03-.17,3.1h-18.26c.41,2.25,1.21,3.87,2.41,4.87,1.2,1,2.87,1.49,5.01,1.49,1.77,0,3.23-.15,4.37-.44,1.14-.29,2.19-.7,3.15-1.22l1.83,4.26c-.92.59-2.18,1.11-3.76,1.55-1.59.44-3.5.66-5.75.66-3.02,0-5.55-.6-7.58-1.8ZM205.89,27.95c.04-2.29-.46-3.9-1.49-4.84s-2.51-1.41-4.42-1.41c-3.87,0-6.1,2.08-6.69,6.25h12.61Z"/></g></svg>